<svg width="131" height="41" viewBox="0 0 131 41" fill="none" xmlns="http://www.w3.org/2000/svg">
<path fill-rule="evenodd" clip-rule="evenodd" d="M37.244 28.6376C37.3122 28.8063 37.3804 28.975 37.4485 29.1391C37.9806 30.6577 38.1442 32.0941 37.8169 33.5305C37.3667 36.5676 35.3614 39.1942 32.4968 40.3433C31.4737 40.7948 30.3278 41 29.182 41C28.8546 41 28.4453 40.959 28.118 40.9179C26.7675 40.7538 25.3761 40.3023 24.0256 39.5225C22.3886 38.5786 20.7517 37.2242 18.9511 35.2543C17.1504 37.2242 15.5544 38.5786 13.8765 39.5225C12.526 40.3023 11.1346 40.7538 9.78416 40.9179C9.45677 40.959 9.04754 41 8.72015 41C7.57429 41 6.46935 40.7948 5.40533 40.3433C2.5816 39.1942 0.535418 36.6086 0.0852576 33.5305C-0.119361 32.0531 0.0443339 30.6166 0.576341 29.0981C0.78096 28.5646 0.985578 28.0721 1.1902 27.6206C1.3394 27.284 1.4886 26.9558 1.63393 26.6362L1.63415 26.6357L1.63418 26.6356C1.80765 26.2541 1.9756 25.8847 2.13144 25.5275L2.17236 25.4454C4.9961 19.2893 8.06537 13.0511 11.2165 6.8949L11.3393 6.64865C11.6666 6.03303 11.994 5.37638 12.3214 4.71972C12.7307 3.98098 13.1808 3.2012 13.7947 2.46246C15.1452 0.902903 16.9867 0 19.0329 0C21.0382 0 22.9207 0.902903 24.2302 2.54454C24.834 3.22578 25.229 3.94191 25.6078 4.62858L25.7035 4.8018C26.0308 5.45846 26.3582 6.11512 26.6856 6.73073L26.8084 6.97698C30.0004 13.1331 33.0288 19.3714 35.8525 25.5275L35.8934 25.5686C36.049 25.9252 36.2167 26.294 36.3899 26.6749L36.3905 26.6762L36.3907 26.6767C36.5361 26.9965 36.6854 27.3248 36.8347 27.6617C36.9711 27.9626 37.1075 28.3001 37.2439 28.6375L37.244 28.6376ZM69.0416 10.3013C69.0416 11.7788 67.8548 12.969 66.3816 12.969C64.9083 12.969 63.7215 11.7788 63.7215 10.3013C63.7215 8.82382 64.8674 7.63363 66.3816 7.63363C67.8957 7.67467 69.0416 8.86486 69.0416 10.3013ZM58.0741 15.6777V16.3343C58.0741 16.3343 56.8054 14.6927 54.1045 14.6927C49.6438 14.6927 46.1653 18.0991 46.1653 22.8188C46.1653 27.4975 49.6029 30.9449 54.1045 30.9449C56.8464 30.9449 58.0741 29.2623 58.0741 29.2623V29.96C58.0741 30.2883 58.3196 30.5345 58.647 30.5345H61.9618V15.1031H58.647C58.3196 15.1031 58.0741 15.3904 58.0741 15.6777ZM54.7592 27.2513C56.2325 27.2513 57.4602 26.4715 58.0741 25.5686V20.0691C57.5011 19.2072 56.1916 18.3864 54.7592 18.3864C52.1401 18.3864 50.1349 20.028 50.1349 22.8188C50.1349 25.6096 52.1401 27.2513 54.7592 27.2513ZM119.132 16.3343C119.132 16.3343 120.401 14.6927 123.102 14.6927C127.521 14.6927 131 18.1401 131 22.8188C131 27.4975 127.521 30.9449 123.061 30.9449C120.36 30.9449 119.091 29.2623 119.091 29.2623V29.96C119.091 30.2472 118.846 30.5345 118.518 30.5345H115.203V7.67467H119.132V16.3343ZM122.447 27.2102C120.933 27.2102 119.746 26.4304 119.132 25.5275V20.028C119.746 19.2072 121.056 18.3453 122.447 18.3453C125.066 18.3453 127.071 19.987 127.071 22.7778C127.071 25.5686 125.066 27.2102 122.447 27.2102ZM113.157 30.5756V21.3824C113.157 18.7968 112.625 17.3193 111.234 16.1702C110.088 15.1852 108.656 14.6927 106.937 14.6927C105.423 14.6927 103.909 15.1441 102.763 16.3343V15.6777C102.763 15.3904 102.517 15.1031 102.19 15.1031H99.0796V30.5345H103.008V19.7818C103.786 18.8789 105.013 18.2633 106.2 18.2633C108.41 18.2633 109.229 19.2893 109.229 21.8338V30.5756H113.157ZM64.4172 15.1031H68.3459V30.5345H64.4172V15.1031ZM89.5443 14.6927C86.8434 14.6927 85.5748 16.3343 85.5748 16.3343V7.67467H81.6461V30.5345H84.9609C85.2883 30.5345 85.5338 30.2472 85.5338 29.96V29.2623C85.5338 29.2623 86.8025 30.9449 89.5034 30.9449C93.9641 30.9449 97.4426 27.4975 97.4426 22.8188C97.4835 18.1401 94.005 14.6927 89.5443 14.6927ZM85.5748 25.5275C86.1886 26.4304 87.3754 27.2102 88.8896 27.2102C91.5087 27.2102 93.5139 25.5686 93.5139 22.7778C93.5139 19.987 91.5087 18.3453 88.8896 18.3453C87.4982 18.3453 86.1886 19.2072 85.5748 20.028V25.5275ZM78.2494 14.6927C79.4362 14.6927 80.0501 14.8979 80.0501 14.8979V18.5506C80.0501 18.5506 76.7762 17.4424 74.73 19.7818V30.5756H70.8013V15.1031H74.1161C74.4435 15.1031 74.6891 15.3904 74.6891 15.6777V16.3343C75.4257 15.4725 77.0217 14.6927 78.2494 14.6927ZM18.992 31.2733C16.7821 28.4825 15.3498 25.8559 14.8587 23.6396C14.6541 22.6957 14.6132 21.8749 14.7359 21.1361C14.8178 20.4795 15.0633 19.9049 15.3907 19.4124C16.1683 18.3043 17.4778 17.6066 18.992 17.6066C20.5062 17.6066 21.8566 18.2633 22.5933 19.4124C22.9207 19.9049 23.1662 20.4795 23.248 21.1361C23.3708 21.8749 23.3299 22.7367 23.1253 23.6396C22.6342 25.8148 21.2019 28.4414 18.992 31.2733ZM31.5965 38.004C33.6017 37.1832 35.034 35.3363 35.3205 33.2022C35.4842 32.1351 35.3614 31.1091 35.034 30.042C34.9487 29.7568 34.8239 29.4716 34.687 29.1589C34.6269 29.0216 34.5645 28.879 34.502 28.7287C34.3384 28.4004 34.1849 28.0516 34.0314 27.7027C33.878 27.3539 33.7245 27.005 33.5608 26.6767V26.6356C30.7371 20.5205 27.7087 14.2823 24.5985 8.16717L24.4757 7.92092C24.3121 7.61311 24.1484 7.29505 23.9847 6.97698C23.821 6.65891 23.6573 6.34084 23.4936 6.03303C23.1662 5.37638 22.7979 4.76076 22.3477 4.22723C21.4883 3.24224 20.3425 2.70871 19.0738 2.70871C17.8052 2.70871 16.6593 3.24224 15.7999 4.22723C15.3498 4.76076 14.9815 5.37638 14.6541 6.03303C14.4904 6.34084 14.3267 6.65891 14.163 6.97698C13.9993 7.29505 13.8356 7.61311 13.6719 7.92092L13.5491 8.16717C10.398 14.2412 7.36967 20.4795 4.54594 26.5946L4.50501 26.6767C4.17762 27.3744 3.85023 28.0721 3.56377 28.7287C3.50135 28.879 3.43893 29.0216 3.37883 29.1589C3.24192 29.4716 3.11708 29.7568 3.03176 30.042C2.62252 31.1912 2.54068 32.2172 2.66345 33.2432C2.94991 35.3774 4.38224 37.2242 6.3875 38.045C7.32874 38.4144 8.39276 38.5786 9.4977 38.4555C10.5208 38.3323 11.5439 38.004 12.6079 37.3884C14.0811 36.5676 15.5953 35.2953 17.2732 33.4074C14.6132 30.0831 12.9353 27.005 12.3214 24.2963C11.994 23.0651 11.9531 21.8749 12.1168 20.8078C12.2805 19.7818 12.6488 18.8378 13.2217 18.017C14.4904 16.2112 16.6184 15.1031 18.992 15.1031C21.3656 15.1031 23.4936 16.1702 24.7622 18.017C25.3351 18.8378 25.7035 19.7818 25.8672 20.8078C25.9899 21.8749 25.949 23.024 25.6625 24.2963C25.0487 27.005 23.4117 30.042 20.7108 33.3664C22.4296 35.2543 23.9028 36.5265 25.3761 37.3473C26.4401 37.963 27.4632 38.2913 28.4863 38.4144C29.5503 38.5375 30.6143 38.4144 31.5965 38.004Z" fill="white"/>
</svg>
