<svg width="32" height="38" viewBox="0 0 32 38" fill="none" xmlns="http://www.w3.org/2000/svg">
<path fill-rule="evenodd" clip-rule="evenodd" d="M21.9212 6.07747C23.3047 4.43508 23.9988 2.66065 23.9988 0.760212V0.760188C23.9988 0.508129 23.9871 0.254053 23.959 0C22.9952 0.0500084 21.9704 0.342083 20.887 0.870221C19.8013 1.40636 18.9059 2.07844 18.202 2.88674C16.7919 4.48316 15.9979 6.43565 15.9979 8.26006C15.9979 8.51221 16.0141 8.75217 16.042 8.98016C18.232 9.15819 20.2515 8.02995 21.9212 6.07747ZM29.2868 33.2868C30.0747 32.1632 30.7548 30.9412 31.3293 29.6135C31.5662 29.0506 31.7889 28.4642 32 27.852C31.0268 27.4438 30.1521 26.8692 29.3689 26.1256C27.6406 24.5236 26.7612 22.5059 26.7355 20.0812C26.7073 16.9684 28.1214 14.5418 30.9799 12.8094C29.383 10.5388 26.9817 9.27852 23.7854 9.0205C22.6059 8.92035 21.1661 9.17461 19.4601 9.78869C17.656 10.4509 16.5919 10.783 16.2779 10.783C15.8579 10.783 14.9 10.4989 13.4081 9.93881C11.9119 9.38056 10.708 9.0965 9.78995 9.0965C8.11209 9.12442 6.55407 9.5607 5.11212 10.4168C3.67017 11.273 2.51807 12.4392 1.65206 13.9177C0.550139 15.7583 0 17.9547 0 20.5013C0 22.7245 0.408032 25.0208 1.22198 27.3922C1.982 29.5877 2.95213 31.5135 4.13214 33.1742C5.23195 34.7293 6.15002 35.8271 6.88401 36.4674C8.034 37.537 9.18611 38.046 10.342 37.9967C11.102 37.9709 12.096 37.7106 13.33 37.211C14.562 36.7137 15.7139 36.4674 16.7879 36.4674C17.812 36.4674 18.932 36.7137 20.1507 37.211C21.3654 37.7106 22.4089 37.9569 23.2742 37.9569C24.4796 37.9287 25.6052 37.4338 26.6557 36.4674C27.3334 35.8787 28.2128 34.8184 29.2868 33.2868Z" fill="white"/>
</svg>
