<svg width="100" height="100" viewBox="0 0 100 100" fill="none" xmlns="http://www.w3.org/2000/svg">
<path d="M50 100C77.6143 100 100 100 100 50C100 0 77.6143 0 50 0C22.3857 0 0 0 0 50C0 100 22.3857 100 50 100Z" fill="url(#paint0_linear)"/>
<mask id="mask0" mask-type="alpha" maskUnits="userSpaceOnUse" x="24" y="24" width="52" height="53">
<path fill-rule="evenodd" clip-rule="evenodd" d="M24 24.0002H76V76.0011H24V24.0002Z" fill="white"/>
</mask>
<g mask="url(#mask0)">
<path fill-rule="evenodd" clip-rule="evenodd" d="M50.041 58.7281C45.259 58.7281 41.369 54.8381 41.369 50.0561C41.369 45.2731 45.259 41.3831 50.041 41.3831C54.824 41.3831 58.714 45.2731 58.714 50.0561C58.714 54.8381 54.824 58.7281 50.041 58.7281M75.837 47.1131C75.755 46.3821 74.902 45.8331 74.166 45.8331C71.783 45.8331 69.669 44.4341 68.782 42.2701C67.876 40.0541 68.46 37.4701 70.236 35.8411C70.795 35.3301 70.863 34.4751 70.395 33.8801C69.175 32.3321 67.788 30.9331 66.275 29.7201C65.683 29.2451 64.812 29.3111 64.299 29.8801C62.749 31.5961 59.966 32.2341 57.814 31.3371C55.576 30.3951 54.164 28.1261 54.302 25.6911C54.348 24.9271 53.789 24.2621 53.026 24.1731C51.084 23.9481 49.124 23.9411 47.177 24.1581C46.423 24.2411 45.864 24.8901 45.889 25.6451C45.974 28.0561 44.545 30.2851 42.329 31.1931C40.204 32.0611 37.439 31.4281 35.893 29.7271C35.381 29.1671 34.526 29.0981 33.931 29.5621C32.372 30.7851 30.955 32.1851 29.724 33.7211C29.244 34.3181 29.315 35.1831 29.879 35.6971C31.689 37.3361 32.273 39.9431 31.333 42.1851C30.436 44.3221 28.216 45.6991 25.676 45.6991C24.852 45.6721 24.264 46.2261 24.174 46.9761C23.945 48.9291 23.942 50.9191 24.163 52.8891C24.245 53.6231 25.123 54.1671 25.868 54.1671C28.132 54.1091 30.306 55.5111 31.217 57.7301C32.126 59.9461 31.542 62.5291 29.764 64.1601C29.208 64.6701 29.137 65.5241 29.605 66.1191C30.813 67.6571 32.2 69.0581 33.719 70.2801C34.314 70.7601 35.181 70.6921 35.698 70.1241C37.253 68.4031 40.037 67.7661 42.18 68.6651C44.424 69.6041 45.835 71.8721 45.697 74.3091C45.652 75.0741 46.214 75.7401 46.973 75.8281C47.967 75.9431 48.966 76.0011 49.969 76.0011C50.92 76.0011 51.872 75.9491 52.823 75.8431C53.577 75.7601 54.136 75.1101 54.11 74.3541C54.023 71.9441 55.454 69.7161 57.668 68.8101C59.808 67.9361 62.56 68.5751 64.106 70.2741C64.621 70.8331 65.471 70.9011 66.069 70.4381C67.625 69.2191 69.039 67.8201 70.275 66.2801C70.755 65.6841 70.687 64.8171 70.12 64.3041C68.311 62.6651 67.724 60.0581 68.663 57.8171C69.547 55.7081 71.684 54.2931 73.982 54.2931L74.304 54.3011C75.05 54.3621 75.735 53.7881 75.825 53.0261C76.055 51.0711 76.058 49.0821 75.837 47.1131" fill="#AD215A"/>
</g>
<path fill-rule="evenodd" clip-rule="evenodd" d="M54.5 50.0005C54.5 52.4855 52.485 54.5005 50 54.5005C47.515 54.5005 45.5 52.4855 45.5 50.0005C45.5 47.5155 47.515 45.5005 50 45.5005C52.485 45.5005 54.5 47.5155 54.5 50.0005" fill="white"/>
<defs>
<linearGradient id="paint0_linear" x1="-50" y1="50" x2="50" y2="150" gradientUnits="userSpaceOnUse">
<stop stop-color="#E74B55"/>
<stop offset="1" stop-color="#EB3DB0"/>
</linearGradient>
</defs>
</svg>
