<svg width="70" height="41" viewBox="0 0 70 41" fill="none" xmlns="http://www.w3.org/2000/svg">
<path fill-rule="evenodd" clip-rule="evenodd" d="M52.5 40.2759L35.0833 30.2204V10.1092L52.5 0.0537109L69.9168 10.1092V30.2203L52.5 40.2759Z" fill="#4B4F55"/>
<path fill-rule="evenodd" clip-rule="evenodd" d="M69.9166 10.1092L52.4999 0.0537109L35.0833 10.1092L52.4999 20.1649V40.2759L69.9167 30.2204V10.1092H69.9166Z" fill="#36393E"/>
<path fill-rule="evenodd" clip-rule="evenodd" d="M69.9167 10.1094L52.5 20.165V40.276L69.9168 30.2205V10.1094H69.9167Z" fill="#43464B"/>
<path fill-rule="evenodd" clip-rule="evenodd" d="M17.5 40.2759L0.083252 30.2204V10.1092L17.5 0.0537109L34.9168 10.1092V30.2203L17.5 40.2759Z" fill="#4B4F55"/>
<path fill-rule="evenodd" clip-rule="evenodd" d="M34.9166 10.1092L17.4999 0.0537109L0.083252 10.1092L17.4999 20.1649V40.2759L34.9167 30.2204V10.1092H34.9166Z" fill="#36393E"/>
<path fill-rule="evenodd" clip-rule="evenodd" d="M34.9167 10.1094L17.5 20.165V40.276L34.9168 30.2205V10.1094H34.9167Z" fill="#43464B"/>
</svg>
