<svg width="111" height="22" viewBox="0 0 111 22" fill="none" xmlns="http://www.w3.org/2000/svg">
<path fill-rule="evenodd" clip-rule="evenodd" d="M2.32823 21.7979H6.98704V10.8977H10.0957L10.5076 7.14163H6.98704L6.99276 5.26146C6.99276 4.28166 7.08846 3.75682 8.5424 3.75682H10.4858V0H7.3766C3.64227 0 2.32823 1.82211 2.32823 4.88643V7.14163H0V10.8977H2.32823V21.7979ZM44.0939 10.3125C42.5118 10.3125 42.1503 11.1523 42.1503 12.1919V12.7761H46.0352V12.1919C46.0352 11.1523 45.6742 10.3125 44.0939 10.3125ZM59.2395 10.6913C58.2893 10.6913 57.6043 10.9925 56.91 11.2994V18.2417C57.5752 18.303 57.9564 18.303 58.5878 18.303C60.8685 18.303 61.1811 17.2935 61.1811 15.8839V12.568C61.1811 11.5274 60.8238 10.6913 59.2395 10.6913ZM16.0417 18.7886C15.1555 18.7886 14.754 18.3613 14.754 17.5389C14.754 16.7114 15.1864 16.5344 16.1702 16.5344H18.2491V18.1813C18.1817 18.2112 18.1156 18.241 18.0502 18.2705C17.4423 18.5444 16.9002 18.7886 16.0417 18.7886ZM73.9724 10.6913C72.3877 10.6913 71.8385 11.5274 71.8385 12.568V16.3665C71.8385 17.4102 72.3877 18.2487 73.9724 18.2487C75.553 18.2487 76.1064 17.4102 76.1064 16.3665V12.568C76.1064 11.5274 75.553 10.6913 73.9724 10.6913ZM22.9097 21.8261H19.0269L18.8586 20.8769C17.0856 21.8261 15.5032 21.9799 14.4593 21.9799C11.6118 21.9799 10.0957 20.1409 10.0957 17.5982C10.0957 14.598 11.8643 13.5272 15.0286 13.5272H18.2491V12.8787C18.2491 11.3476 18.0675 10.8977 15.6311 10.8977H11.6474L12.037 7.14163H16.3915C21.7376 7.14163 22.9097 8.77396 22.9097 12.9088V21.8261ZM31.8411 10.685C33.0038 10.685 33.6976 10.773 36.114 11.1732V7.51163C33.9975 7.05114 32.6187 6.92999 31.4531 6.92999C26.451 6.92999 24.4627 9.47701 24.4627 13.1531V15.7844C24.4627 19.4572 26.451 22 31.4531 22C32.6187 22 33.9975 21.8793 36.114 21.4209V17.757C33.6976 18.1592 33.0038 18.2487 31.8411 18.2487C29.7526 18.2487 29.1215 17.8013 29.1215 16.087V12.8445C29.1215 11.1305 29.7526 10.685 31.8411 10.685ZM50.694 15.7844H42.1503V16.087C42.1503 17.8013 42.782 18.2487 44.8699 18.2487C46.747 18.2487 47.8925 18.1592 50.3045 17.757V21.4209C47.9783 21.8793 46.7662 22 44.4837 22C39.4814 22 37.492 19.4572 37.492 15.7844V12.7761C37.492 9.56247 38.9681 6.92999 44.0939 6.92999C49.2198 6.92999 50.694 9.53181 50.694 12.7761V15.7844ZM58.4302 21.993C64.7895 21.993 65.8391 19.404 65.8391 15.8538V12.1919C65.8391 8.9484 65.0631 6.92999 60.4051 6.92999C59.2192 6.92999 57.9164 7.11348 56.91 7.47493V0.376537L52.2525 1.12785V21.4209C54.7869 21.7979 56.134 21.993 58.4302 21.993ZM80.7691 15.9312C80.7691 18.9937 79.4611 21.9638 73.988 21.9638C68.5124 21.9638 67.1799 18.9937 67.1799 15.9312V12.9742C67.1799 9.9101 68.5124 6.93954 73.988 6.93954C79.4611 6.93954 80.7691 9.9101 80.7691 12.9742V15.9312ZM88.9071 21.9638C94.3791 21.9638 95.6887 18.9937 95.6887 15.9312V12.9742C95.6887 9.9101 94.3791 6.93954 88.9071 6.93954C83.4315 6.93954 82.099 9.9101 82.099 12.9742V15.9312C82.099 18.9937 83.4315 21.9638 88.9071 21.9638ZM111 21.7979H105.951L101.682 14.9086V21.7979H97.0228V1.12785L101.682 0.376537V13.683L105.951 7.14163H111L106.339 14.2802L111 21.7979ZM86.7602 12.568C86.7602 11.5274 87.3094 10.6913 88.8915 10.6913C90.4716 10.6913 91.0307 11.5274 91.0307 12.568V16.3665C91.0307 17.4102 90.4716 18.2487 88.8915 18.2487C87.3094 18.2487 86.7602 17.4102 86.7602 16.3665V12.568Z" fill="white"/>
</svg>
