<svg width="100" height="100" viewBox="0 0 100 100" fill="none" xmlns="http://www.w3.org/2000/svg">
<path d="M50 100C77.6143 100 100 100 100 50C100 0 77.6143 0 50 0C22.3857 0 0 0 0 50C0 100 22.3857 100 50 100Z" fill="#007AFF"/>
<mask id="mask0" mask-type="alpha" maskUnits="userSpaceOnUse" x="23" y="23" width="54" height="54">
<path fill-rule="evenodd" clip-rule="evenodd" d="M23 23H77V76.9996H23V23Z" fill="white"/>
</mask>
<g mask="url(#mask0)">
<path fill-rule="evenodd" clip-rule="evenodd" d="M77 36.7455V71.1085C77 74.3585 74.359 76.9995 71.109 76.9995H28.891C25.641 76.9995 23 74.3585 23 71.1085V28.8915C23 25.6415 25.641 22.9995 28.891 22.9995H63.254L77 36.7455Z" fill="#0064D2"/>
</g>
<mask id="mask1" mask-type="alpha" maskUnits="userSpaceOnUse" x="63" y="23" width="15" height="14">
<path fill-rule="evenodd" clip-rule="evenodd" d="M63.254 23H77V36.7456H63.254V23Z" fill="white"/>
</mask>
<g mask="url(#mask1)">
<path fill-rule="evenodd" clip-rule="evenodd" d="M77 36.7455H67.182C65.013 36.7455 63.254 34.9875 63.254 32.8185V22.9995L77 36.7455Z" fill="#3D9AFF"/>
</g>
<path d="M39.2178 43.3726L34.4838 49.9996L39.2178 56.6276" stroke="white" stroke-width="2" stroke-linecap="round" stroke-linejoin="round"/>
<path d="M60.7822 43.3726L65.5162 49.9996L60.7822 56.6276" stroke="white" stroke-width="2" stroke-linecap="round" stroke-linejoin="round"/>
<path d="M55.3999 33.7998L44.5999 66.1998" stroke="white" stroke-width="2" stroke-linecap="round" stroke-linejoin="round"/>
</svg>
