<svg width="83" height="26" viewBox="0 0 83 26" fill="none" xmlns="http://www.w3.org/2000/svg">
<path fill-rule="evenodd" clip-rule="evenodd" d="M13.0122 11.9016V15.4535L21.3903 15.4498C21.1332 17.4088 20.4813 18.8432 19.4904 19.8473C18.2685 21.0854 16.3612 22.448 13.0122 22.448C7.84905 22.448 3.81091 18.2317 3.81091 13C3.81091 7.76829 7.84905 3.55197 13.0122 3.55197C15.7987 3.55197 17.8327 4.66173 19.3339 6.08856L21.8075 3.58217C19.7139 1.55517 16.9274 0 13.0159 0C5.94546 0 0 5.83566 0 13C0 20.1643 5.94546 26 13.0159 26C16.8306 26 19.7102 24.7317 21.9639 22.3537C24.281 20.0058 25 16.7105 25 14.0456C25 13.2529 24.9404 12.5206 24.8249 11.9016H13.0122ZM83 25V0H80V25H83Z" fill="white"/>
</svg>
