<svg width="190" height="47" viewBox="0 0 190 47" fill="none" xmlns="http://www.w3.org/2000/svg">
<path fill-rule="evenodd" clip-rule="evenodd" d="M183.272 34.5079L183.338 34.5088C187.231 34.5088 189.97 31.8181 190 27.9674C190.014 26.0606 189.462 24.315 188.445 23.054C187.369 21.7192 185.864 21.0076 184.09 20.9935H184.055C181.661 20.9935 179.438 22.8053 177.259 26.5334L177.086 26.8309L176.975 26.5066C176.43 24.9259 175.945 23.6061 175.651 22.8067L175.65 22.8044L175.642 22.7814C175.436 22.2258 175.346 21.9763 175.324 21.8954C175.22 21.4922 174.874 21.2416 174.421 21.2416C174.143 21.2416 173.847 21.3361 173.567 21.5138C173.289 21.69 173.134 21.9053 173.079 22.1929L173.065 22.2362C170.884 29.0216 169.086 32.3158 167.563 32.3158C167.341 32.3139 167.168 32.242 167.039 32.0982C166.64 31.6583 166.738 30.612 166.873 29.1635L166.875 29.1448L166.875 29.1446C166.974 28.0851 167.086 26.8872 167.039 25.6164C166.95 23.1588 165.601 21.683 163.435 21.667C160.681 21.6661 158.896 24.5923 158.074 26.3365L157.828 26.8563L157.774 26.2829C157.569 24.1246 156.843 21.5467 154.55 21.5298C151.876 21.5298 149.839 24.66 148.597 27.2873L148.263 27.9913L148.296 27.2139C148.444 23.7101 148.565 21.6411 148.657 21.0673C148.747 20.4915 148.7 20.1052 148.511 19.8838C148.332 19.6765 147.994 19.5999 147.5 19.631C146.644 19.685 146.206 20.2048 145.547 21.9471C144.464 24.8085 141.711 31.4656 139.512 31.4656C139.076 31.4623 138.731 31.3142 138.478 31.0242C137.556 29.9701 137.924 27.1197 138.434 23.1758L138.435 23.1743L138.473 22.8758C138.715 21.0081 138.303 20.6095 137.286 20.4229C137.184 20.4038 137.081 20.3937 136.977 20.3928C136.165 20.3928 135.785 21.1688 135.027 23.3252C133.677 27.1622 131.941 31.1977 129.911 31.1977C129.837 31.1977 129.764 31.192 129.689 31.1803C128.614 30.9975 128.637 29.4064 128.667 27.39V27.3892L128.667 27.3668V27.3666C128.682 26.2817 128.699 25.0546 128.532 23.946C128.229 21.9429 127.046 20.6922 125.444 20.6795C122.248 20.6795 120.092 24.7629 119.09 27.1975L118.863 27.7483L118.787 27.1571C118.59 25.5943 118.461 24.0239 118.399 22.45L118.396 22.3913L118.433 22.3452C124.414 14.8332 127.099 9.41222 127.135 4.76768C127.158 1.80057 125.785 0.01833 123.464 0C121.767 0 117.731 1.41047 116.329 14.4746C116.067 16.9271 115.925 19.391 115.905 21.8573L115.904 21.9062L115.876 21.9457C113.139 25.8975 107.298 32.6951 101.58 32.6951C96.4134 32.6951 92.2912 28.5248 92.2912 21.1636C92.2912 11.2955 99.2924 5.23674 104.561 5.23674H104.605C105.75 5.2452 106.732 5.56433 107.444 6.15935C108.184 6.77693 108.571 7.64267 108.563 8.66257C108.553 10.0251 108.108 10.7254 107.678 11.4017L107.645 11.4543C107.546 11.611 107.447 11.7675 107.356 11.9324C107.255 12.1175 107.162 12.3859 107.297 12.6157C107.436 12.8512 107.789 12.9993 108.22 13.0026C109.474 13.0026 111.371 11.1912 111.392 8.46235C111.414 5.60616 109.002 2.66302 104.699 2.66302C98.1881 2.66302 89.4183 9.7995 89.4183 21.3653C89.4183 29.5465 94.56 35.2011 101.525 35.2011C106.467 35.2011 111.357 31.6705 115.687 25.7734L115.952 25.4162L115.971 25.8599C116.062 28.0153 116.219 29.7138 116.333 30.9555L116.334 30.9613L116.336 30.9832L116.336 30.9834L116.336 30.9847C116.409 31.7711 116.462 32.3396 116.46 32.6547C116.454 33.3517 116.568 33.8367 116.809 34.1338C117.05 34.4313 117.433 34.5718 118.013 34.5756C118.985 34.5756 119.18 33.9143 119.565 32.2824L119.676 31.8167C120.155 29.8394 121.922 23.3853 124.581 23.3853C125.015 23.3896 125.35 23.5174 125.588 23.7688C126.175 24.3902 126.111 25.6653 126.036 27.1425C125.989 28.0642 125.942 29.0159 126.035 29.9432C126.285 32.4464 127.368 33.6708 129.346 33.6849C131.378 33.6858 133.498 31.5027 134.617 29.4742L134.828 29.0921L134.91 29.5216C135.117 30.6073 136.04 34.1709 138.931 34.1709C141.552 34.1709 143.8 31.4181 146.264 25.7522L146.586 25.0125L146.567 25.8195C146.549 26.5418 146.524 27.3179 146.499 28.1071C146.449 29.6633 146.398 31.2701 146.397 32.6152C146.396 34.1831 146.555 34.7814 147.281 34.7814L147.446 34.7889C148.143 34.7889 148.616 34.3739 148.852 33.5533C150.706 27.1063 152.308 24.104 153.896 24.104C155.451 24.1157 155.596 26.9517 155.721 31.9628L155.73 32.3144C155.767 34.067 155.831 34.8425 156.922 34.8505C157.75 34.8505 157.956 34.2014 158.384 32.6034L158.416 32.4854L158.416 32.4841L158.417 32.4816C158.49 32.2104 158.569 31.9172 158.66 31.6037C160.157 26.422 161.398 24.3079 162.943 24.3079C164.265 24.3178 164.34 25.6763 164.364 26.1244L164.364 26.1254C164.415 27.0806 164.317 28.0807 164.222 29.0464L164.221 29.053C164.132 29.9526 164.041 30.8832 164.075 31.7476C164.156 33.7742 165.268 34.8989 167.207 34.9135C169.724 34.9135 171.995 31.9769 173.985 26.1875L174.123 25.7842L174.281 26.1814C174.642 27.0913 175.112 28.3231 175.547 29.7928L175.563 29.8488L175.539 29.9019C173.613 34.1695 172.253 38.923 172.234 41.4629C172.208 44.8079 173.725 46.9817 176.099 47H176.14C177.431 47 180.441 46.4825 180.5 41.696C180.524 39.7343 180.059 36.9603 179.12 33.4499L179.012 33.048L179.358 33.2784C180.561 34.0722 181.913 34.4966 183.272 34.5079ZM118.406 18.2745C118.46 17.0751 118.561 15.9072 118.705 14.8027C119.637 7.68591 121.581 2.71613 123.434 2.71613H123.443C124.327 2.72271 124.769 3.38964 124.76 4.69718C124.734 7.91057 122.693 12.5109 118.695 18.3704L118.382 18.8291L118.406 18.2745ZM176.298 44.4507C176.812 44.4507 177.223 44.2519 177.518 43.8599C178.496 42.5627 178.176 39.0894 176.568 33.5354L176.427 33.0499L176.267 33.5298C176.078 34.0952 175.899 34.6728 175.734 35.2481C174.354 40.0595 174.115 42.7103 174.961 43.8378C175.263 44.2406 175.707 44.4455 176.298 44.4507ZM178.018 29.6307L177.989 29.5776L177.931 29.3929L177.958 29.3379C179.792 25.5685 181.893 23.4079 183.721 23.4079H183.74C185.804 23.4234 187.231 25.2771 187.212 27.9133C187.198 29.673 186.42 30.6863 185.771 31.2263C185.03 31.843 184.043 32.1955 183.063 32.1955C180.647 32.1771 178.989 30.7902 178.018 29.6307ZM66.9817 28.1774C66.1478 29.8187 63.9025 33.659 61.072 33.8847C58.4767 34.0947 57.2621 32.2815 56.7006 30.777L56.5531 30.3803L56.4052 30.777C55.6495 32.8046 53.6186 34.9548 51.198 35.1428C49.6198 35.2641 48.1584 34.6113 47.2524 33.3968L47.1488 33.2572L47.0197 33.3738C45.6441 34.6193 44.2868 35.2509 42.9837 35.2509H42.9535C41.5755 35.2392 40.4048 34.7231 39.5681 33.754C38.7531 32.8102 38.3216 31.4679 38.3216 29.9719C38.3216 27.8948 38.8385 24.8135 39.358 21.7164L39.358 21.7163C39.8829 18.5875 40.4105 15.4426 40.4105 13.301C40.4105 11.4548 39.5012 10.5083 38.3334 10.5083C34.8475 10.5083 32.1572 18.0146 28.8171 27.334C28.4254 28.4271 28.0247 29.545 27.6127 30.6788C27.5056 30.9729 27.4083 31.2556 27.3165 31.5225L27.2858 31.6117C26.7153 33.2722 26.3709 34.2738 25.2256 34.2738C24.8935 34.2719 24.6429 34.1756 24.4582 33.981C23.8665 33.3559 23.9465 31.7264 24.0483 29.6598C24.0653 29.3327 24.0818 28.9924 24.0964 28.6418C24.1683 26.9479 24.255 25.3472 24.3356 23.8603L24.3356 23.8598L24.3356 23.8593C24.3737 23.1562 24.4105 22.4786 24.4436 21.8287C24.9279 12.2783 24.7309 7.75265 22.089 7.75265C19.8022 7.75265 18.0148 10.6916 15.6489 18.769C14.6585 22.1497 13.8603 24.9157 13.2229 27.1246L13.2228 27.125C12.2733 30.4155 11.6805 32.4697 11.3405 33.4781C10.9571 34.6136 10.2085 35.0799 9.05801 34.9008C8.17441 34.7641 8.29227 32.9291 8.44145 30.6066V30.6066L8.4418 30.6012C8.47929 30.0493 8.51164 29.497 8.53884 28.9445C8.69478 25.5957 8.87946 22.6521 9.0434 20.054L9.04423 20.0409C9.55015 11.9873 9.82886 7.5506 8.29292 5.90696C7.83877 5.41957 7.23151 5.17987 6.41602 5.17376C4.4496 5.17376 2.91707 7.07256 1.7327 10.9778C1.65638 11.2302 1.48018 11.6536 1.16218 11.6536C0.674107 11.6536 0.030098 10.7216 0.00183131 9.67448C-0.0443376 7.95193 0.785761 5.95725 2.11806 4.59237C2.94769 3.74214 4.36621 2.72835 6.41083 2.72835H6.45794C10.2857 2.75749 12.0204 5.08822 12.0854 10.2874C12.1365 14.4268 11.4776 21.5471 11.0879 25.7589L11.0879 25.759L11.0565 26.0977C11.6864 23.6259 12.3987 20.8991 12.8085 19.5036L12.8886 19.2311C14.6699 13.1654 17.1274 4.79682 22.1761 4.79682H22.211C23.5772 4.80716 24.6259 5.21277 25.4188 6.03621C26.8891 7.56277 27.5275 10.5966 27.372 15.3107C27.2598 18.5907 27.0623 21.8672 26.7798 25.137L26.6503 26.6617L27.0889 25.1948C27.3682 24.2531 27.6562 23.314 27.9529 22.3776C31.0764 12.6233 34.3402 7.88237 38.5284 7.88237H38.5717C41.4399 7.90446 43.0916 9.91747 43.0916 13.6154C43.0916 15.3908 42.527 18.7648 41.9747 22.065L41.9747 22.0652C41.446 25.2242 40.9287 28.3157 40.9287 29.8727C40.9287 31.7645 41.8073 32.9 43.3389 32.9113C44.3311 32.9113 45.3327 32.3689 46.3154 31.3011L46.3663 31.2451L46.355 31.1713C46.3347 31.0374 46.3145 30.9025 46.3032 30.762C46.0846 28.106 46.8694 25.5177 48.5122 23.4727C49.9194 21.7211 51.842 20.5475 53.5305 20.4093C53.6789 20.3975 53.8226 20.3919 53.9611 20.3919C55.5435 20.3919 56.3958 21.1589 56.833 21.8028L57.0657 22.0839L57.1279 21.6891C57.4374 19.7898 58.0776 19.3715 59.0788 19.2916C59.7209 19.2409 60.2075 19.3631 60.4516 19.6653C60.6947 19.9684 60.7408 20.469 60.5896 21.1552C60.4874 21.6177 60.3682 22.1173 60.2438 22.6376L60.2427 22.6424C59.5513 25.5363 58.6917 29.1342 59.825 30.5773C60.1637 31.0078 60.6584 31.2282 61.3062 31.2343C63.6438 31.2343 65.9678 25.5252 67.1451 22.1234C67.7109 20.4859 67.9422 20.2589 69.0484 20.2589L69.1045 20.2593C69.585 20.2631 69.9148 20.382 70.1117 20.6231C70.3538 20.9187 70.3225 21.4115 70.2753 22.157C70.2687 22.2603 70.2619 22.3684 70.2554 22.4815C70.0099 26.7924 69.9054 31.9915 73.0133 31.9915C74.3051 31.9915 75.9149 30.9439 77.5463 29.0418L77.6043 28.9732L77.5755 28.8881C77.0672 27.3733 76.7539 25.6925 76.6456 23.8943C76.1212 15.2393 77.5656 7.6563 80.3259 4.57545C81.2299 3.56636 82.2664 3.02445 83.406 2.9657L83.6279 2.96006C86.603 2.96006 87.3949 6.19977 87.5353 8.91731C87.8401 14.789 84.7548 23.5432 80.3579 29.2805L80.3042 29.3501L80.3358 29.4328C81.0999 31.4012 82.2824 32.3548 83.8814 32.2768C85.1873 32.2091 86.3858 31.0609 87.0289 30.4447L87.1556 30.3253C87.4203 30.072 87.7812 30.104 88.0295 30.3803C88.2278 30.5998 88.3192 30.9255 88.2815 31.2715C88.1341 32.6283 86.4569 34.5817 83.6939 34.725C81.817 34.8209 80.0541 33.6558 78.7397 31.4627L78.6355 31.2893L78.4923 31.4336C76.54 33.3987 74.6085 34.4378 72.9059 34.4378H72.8729C68.9368 34.4068 67.6784 30.5293 67.278 28.2216L67.1965 27.7544L66.9817 28.1774ZM83.3763 5.66491L83.4178 5.66397C83.6943 5.66397 83.9374 5.80215 84.1391 6.07569C85.1001 7.37195 85.1147 12.1034 83.4616 17.4868C82.517 20.5634 81.2464 23.4699 79.7888 25.8909L79.5561 26.2763L79.4967 25.8303C79.3252 24.5284 79.2404 23.1729 79.1811 22.0195C78.7594 13.8824 81.2266 5.7763 83.3763 5.66491ZM51.1189 32.423C54.0478 32.188 55.6721 28.083 56.5192 24.6825L56.5324 24.6299L56.5112 24.5819C56.1122 23.6565 55.2439 22.6643 54.0054 22.6549H53.9856C53.0042 22.6549 51.948 23.2133 51.0119 24.2276C49.5411 25.8204 48.6945 28.1145 48.8556 30.0734C48.9842 31.6395 49.6655 32.4328 50.8805 32.4328L51.1189 32.423ZM70.1037 12.2158C69.0225 12.2158 68.1495 13.0655 68.1411 14.1103C68.1326 15.1627 69.0004 16.0256 70.0745 16.0336L70.09 16.1901V16.0336C71.1557 16.0336 72.0282 15.1843 72.0367 14.1399C72.0452 13.0871 71.1778 12.2242 70.1037 12.2158ZM136.119 14.1103C136.128 13.0655 137.001 12.2158 138.082 12.2158C139.156 12.2242 140.023 13.0871 140.015 14.1399C140.007 15.1843 139.134 16.0336 138.068 16.0336V16.1901L138.053 16.0336C136.978 16.0256 136.111 15.1627 136.119 14.1103Z" fill="white"/>
</svg>
