<svg width="1440" height="500" viewBox="0 0 1440 500" fill="none" xmlns="http://www.w3.org/2000/svg">
<path d="M1575 479C1430.63 234.348 1192.75 100.073 969.911 40.3402C744.973 -19.5913 535.088 -4.98165 398.241 43.553C259.29 91.8893 193.377 174.15 207.996 244.948C217.695 299.665 275.771 347.498 362.158 365.088" stroke="#FE3347" stroke-width="1.3"/>
<path d="M363 368.5C364.657 368.5 366 367.157 366 365.5C366 363.843 364.657 362.5 363 362.5C361.343 362.5 360 363.843 360 365.5C360 367.157 361.343 368.5 363 368.5Z" fill="white"/>
<path d="M2386 1049C2088.2 544.341 1597.48 267.365 1137.81 144.149C673.804 20.525 240.85 50.6613 -41.4424 150.777C-328.073 250.483 -464.039 420.167 -433.883 566.206C-413.875 679.076 -294.076 777.743 -115.874 814.026" stroke="#FE3347" stroke-width="1.3"/>
<path d="M1315 202C1316.66 202 1318 200.657 1318 199C1318 197.343 1316.66 196 1315 196C1313.34 196 1312 197.343 1312 199C1312 200.657 1313.34 202 1315 202Z" fill="white"/>
<path d="M219 277C228.39 293.881 242.632 309.495 261 323" stroke="#FE3347" stroke-width="1.3"/>
</svg>
