<svg width="52" height="33" viewBox="0 0 52 33" fill="none" xmlns="http://www.w3.org/2000/svg">
<path fill-rule="evenodd" clip-rule="evenodd" d="M51.4319 5.42056V0L44.8083 1.41522V6.86248L51.4319 5.42056ZM44.8083 8.89186H51.4319V32.2563H44.8083V8.89186ZM37.2875 8.89186L37.7097 10.8678C39.2667 7.98398 42.3542 8.57143 43.1986 8.89186V15.0334C42.3806 14.7397 39.7417 14.3658 38.1847 16.4219V32.2563H31.5875V8.89186H37.2875ZM24.5153 3.09746L18.0764 4.48598L18.05 25.8745C18.05 29.8264 20.9792 32.737 24.8847 32.737C27.0486 32.737 28.6319 32.3364 29.5028 31.8558V26.4352C28.6583 26.7824 24.4889 28.0107 24.4889 24.0587V14.5794H29.5028V8.89186H24.4889L24.5153 3.09746ZM8.91944 14.2323C7.52083 14.2323 6.67639 14.6328 6.67639 15.6742C6.67639 16.8113 8.12969 17.3114 9.93267 17.9319C12.872 18.9435 16.7406 20.275 16.7569 25.2069C16.7569 29.9866 12.9833 32.737 7.49444 32.737C5.225 32.737 2.74444 32.283 0.290278 31.215V24.8598C2.50694 26.0881 5.30417 26.996 7.49444 26.996C8.97222 26.996 10.0278 26.5955 10.0278 25.3672C10.0278 24.1077 8.45237 23.532 6.55042 22.837C3.65389 21.7785 0 20.4434 0 15.9947C0 11.2684 3.5625 8.43792 8.91944 8.43792C11.1097 8.43792 13.2736 8.78505 15.4639 9.66622V15.9413C13.4583 14.8465 10.925 14.2323 8.91944 14.2323Z" fill="white"/>
</svg>
