<svg width="32" height="38" viewBox="0 0 32 38" fill="none" xmlns="http://www.w3.org/2000/svg">
<g id="Apple_logo_black">
<path id="path4" fill-rule="evenodd" clip-rule="evenodd" d="M21.5786 6.04549C22.9406 4.41174 23.6238 2.64665 23.6238 0.756215V0.756191C23.6238 0.505458 23.6123 0.252721 23.5846 0C22.6359 0.0497527 21.6271 0.340287 20.5606 0.865644C19.4919 1.39896 18.6105 2.06751 17.9176 2.87155C16.5295 4.45957 15.7479 6.40178 15.7479 8.21659C15.7479 8.46741 15.7639 8.70611 15.7913 8.9329C17.9471 9.10999 19.9351 7.9877 21.5786 6.04549ZM28.8292 33.1116C29.6048 31.9939 30.2743 30.7783 30.8398 29.4577C31.073 28.8977 31.2922 28.3144 31.5 27.7054C30.542 27.2994 29.681 26.7278 28.91 25.9881C27.2087 24.3945 26.3431 22.3874 26.3177 19.9755C26.29 16.8791 27.682 14.4653 30.4959 12.742C28.9239 10.4834 26.5601 9.22969 23.4138 8.97303C22.2527 8.8734 20.8353 9.12633 19.156 9.73718C17.3802 10.3959 16.3326 10.7262 16.0235 10.7262C15.6101 10.7262 14.6671 10.4437 13.1986 9.88651C11.7258 9.33119 10.5407 9.04863 9.63698 9.04863C7.98534 9.0764 6.45166 9.51038 5.03224 10.362C3.61283 11.2137 2.47873 12.3738 1.62625 13.8444C0.541543 15.6753 0 17.8602 0 20.3934C0 22.6049 0.401656 24.8891 1.20289 27.2481C1.95103 29.432 2.90601 31.3476 4.06758 32.9996C5.1502 34.5465 6.05393 35.6385 6.77645 36.2755C7.90847 37.3394 9.04257 37.8458 10.1804 37.7968C10.9285 37.7711 11.907 37.5121 13.1217 37.0151C14.3345 36.5205 15.4684 36.2755 16.5256 36.2755C17.5337 36.2755 18.6362 36.5205 19.8358 37.0151C21.0315 37.5121 22.0588 37.7571 22.9106 37.7571C24.0971 37.7291 25.2051 37.2368 26.2392 36.2755C26.9063 35.6898 27.772 34.6352 28.8292 33.1116Z" fill="white"/>
</g>
</svg>
