<svg width="90" height="90" viewBox="0 0 90 90" fill="none" xmlns="http://www.w3.org/2000/svg">
<path fill-rule="evenodd" clip-rule="evenodd" d="M0 45C0 69.8121 20.1879 90 45 90C69.8121 90 90 69.8121 90 45C90 20.1879 69.8121 0 45 0C20.1879 0 0 20.1879 0 45ZM3.10345 45C3.10345 21.8979 21.8979 3.10345 45 3.10345C68.1021 3.10345 86.8966 21.8979 86.8966 45C86.8966 68.1021 68.1021 86.8966 45 86.8966C21.8979 86.8966 3.10345 68.1021 3.10345 45Z" fill="white"/>
<path d="M39.0755 64.3252C38.6783 64.3252 38.281 64.1731 37.9769 63.8721L18.2266 44.1248C17.6214 43.5196 17.6214 42.5359 18.2266 41.9307C18.8317 41.3255 19.8155 41.3255 20.4207 41.9307L39.0724 60.5824L69.5762 30.0817C70.1814 29.4765 71.1652 29.4765 71.7703 30.0817C72.3755 30.6869 72.3755 31.6707 71.7703 32.2759L40.171 63.8721C39.87 64.1731 39.4728 64.3252 39.0755 64.3252Z" fill="white"/>
</svg>
