<svg width="50" height="32" viewBox="0 0 50 32" fill="none" xmlns="http://www.w3.org/2000/svg">
<path d="M5 22V5C5 2.79086 6.79086 1 9 1H35C36.3072 1 37.468 1.62709 38.1979 2.59686" stroke="#D49552" stroke-width="2" stroke-linecap="round" stroke-linejoin="round"/>
<path d="M31.0287 31C26.4159 31 18.6477 31 9.422 31C3 31 1 27.21 1 25H14.95C15.3636 24.9996 15.767 25.1282 16.104 25.368L17.904 26.632C18.241 26.8719 18.6444 27.0005 19.058 27H24.958C25.3716 27.0005 25.775 26.8719 26.112 26.632L27.912 25.368H31.0287" stroke="#D49552" stroke-width="2" stroke-linecap="round" stroke-linejoin="round"/>
<path fill-rule="evenodd" clip-rule="evenodd" d="M37.4 31C36.0745 31 35 29.9255 35 28.6V8.4C35 7.07452 36.0745 6 37.4 6H46.6C47.9255 6 49 7.07452 49 8.4V28.6C49 29.9255 47.9255 31 46.6 31H37.4Z" stroke="#D49552" stroke-width="2" stroke-linecap="round" stroke-linejoin="round"/>
<path fill-rule="evenodd" clip-rule="evenodd" d="M44.6886 19.6774L41.0841 22.0866C40.8713 22.2304 40.5965 22.2451 40.3696 22.1249C40.1426 22.0046 40.0005 21.7689 40 21.5121V16.6937C40.0005 16.4368 40.1426 16.2012 40.3696 16.0809C40.5965 15.9606 40.8713 15.9753 41.0841 16.1192L44.6886 18.5284C44.8829 18.6549 45 18.8711 45 19.1029C45 19.3347 44.8829 19.5508 44.6886 19.6774Z" fill="#D49552" stroke="#D49552"/>
<path fill-rule="evenodd" clip-rule="evenodd" d="M24.6886 14.6774L21.0841 17.0866C20.8713 17.2304 20.5965 17.2451 20.3696 17.1249C20.1426 17.0046 20.0005 16.7689 20 16.5121V11.6937C20.0005 11.4368 20.1426 11.2012 20.3696 11.0809C20.5965 10.9606 20.8713 10.9753 21.0841 11.1192L24.6886 13.5284C24.8829 13.6549 25 13.8711 25 14.1029C25 14.3347 24.8829 14.5508 24.6886 14.6774Z" fill="#D49552" stroke="#D49552"/>
<path d="M40 7H44" stroke="#D49552" stroke-width="3" stroke-linecap="round" stroke-linejoin="round"/>
</svg>
