<svg width="74" height="47" viewBox="0 0 74 47" fill="none" xmlns="http://www.w3.org/2000/svg">
<path d="M7 32.5V7C7 3.68629 9.68629 1 13 1H52C53.9609 1 55.702 1.94063 56.7969 3.39529" stroke="#D49552" stroke-width="2" stroke-linecap="round" stroke-linejoin="round"/>
<path d="M46.0431 45.9999C39.1238 45.9999 27.4716 45.9999 13.633 45.9999C4 45.9999 1 40.315 1 36.9999H21.925C22.5454 36.9992 23.1506 37.1922 23.656 37.552L26.356 39.448C26.8614 39.8077 27.4666 40.0007 28.087 39.9999H36.937C37.5574 40.0007 38.1626 39.8077 38.668 39.448L41.368 37.552H46.0431" stroke="#D49552" stroke-width="2" stroke-linecap="round" stroke-linejoin="round"/>
<path fill-rule="evenodd" clip-rule="evenodd" d="M55.6 46C53.6118 46 52 44.3882 52 42.4V12.1C52 10.1118 53.6118 8.5 55.6 8.5H69.4C71.3882 8.5 73 10.1118 73 12.1V42.4C73 44.3882 71.3882 46 69.4 46H55.6Z" stroke="#D49552" stroke-width="2" stroke-linecap="round" stroke-linejoin="round"/>
<path fill-rule="evenodd" clip-rule="evenodd" d="M66.533 29.0161L61.1262 32.6298C60.807 32.8456 60.3948 32.8677 60.0543 32.6873C59.7139 32.5069 59.5007 32.1534 59.5 31.7681V24.5405C59.5007 24.1552 59.7139 23.8017 60.0543 23.6213C60.3948 23.4409 60.807 23.463 61.1262 23.6788L66.533 27.2926C66.8243 27.4824 67 27.8066 67 28.1543C67 28.502 66.8243 28.8262 66.533 29.0161V29.0161Z" stroke="#D49552" stroke-width="2"/>
<path fill-rule="evenodd" clip-rule="evenodd" d="M36.533 21.5161L31.1262 25.1298C30.807 25.3456 30.3948 25.3677 30.0543 25.1873C29.7139 25.0069 29.5007 24.6534 29.5 24.2681V17.0405C29.5007 16.6552 29.7139 16.3017 30.0543 16.1213C30.3948 15.9409 30.807 15.963 31.1262 16.1788L36.533 19.7926C36.8243 19.9824 37 20.3066 37 20.6543C37 21.002 36.8243 21.3262 36.533 21.5161V21.5161Z" stroke="#D49552" stroke-width="2"/>
<path d="M59.5 10H65.5" stroke="#D49552" stroke-width="2" stroke-linecap="round" stroke-linejoin="round"/>
</svg>
