<svg width="42" height="32" viewBox="0 0 42 32" fill="none" xmlns="http://www.w3.org/2000/svg">
<path fill-rule="evenodd" clip-rule="evenodd" d="M36.294 18.2142C38.8931 18.2142 41 14.5268 41 9.97819C41 5.42957 38.8931 1.74219 36.294 1.74219C33.695 1.74219 31.588 5.42957 31.588 9.97819C31.588 14.5268 33.695 18.2142 36.294 18.2142Z" stroke="#D49552" stroke-width="2" stroke-linecap="round" stroke-linejoin="round"/>
<path d="M5.70599 1.74219C5.70599 1.74219 20.956 6.10019 34.686 2.23619" stroke="#D49552" stroke-width="2" stroke-linecap="round" stroke-linejoin="round"/>
<path d="M27.764 16.4139C30.086 16.6086 32.3831 17.032 34.622 17.6779" stroke="#D49552" stroke-width="2" stroke-linecap="round" stroke-linejoin="round"/>
<path d="M9.292 17.4002L5.706 18.2222C3.106 18.2142 1 14.5262 1 9.97819C1 5.43019 3.106 1.74219 5.706 1.74219" stroke="#D49552" stroke-width="2" stroke-linecap="round" stroke-linejoin="round"/>
<path d="M26.666 20.376C28.5617 21.5559 30.1953 23.1119 31.466 24.948C33.1145 24.2313 34.5001 23.021 35.432 21.484" stroke="#D49552" stroke-width="2" stroke-linecap="round" stroke-linejoin="round"/>
<path d="M13.86 19.7778C14.0751 23.2526 14.5228 26.709 15.2 30.1238L18.8 28.1398L23.726 30.1238C23.0724 26.8042 22.6335 23.4459 22.412 20.0698" stroke="#D49552" stroke-width="2" stroke-linecap="round" stroke-linejoin="round"/>
<path fill-rule="evenodd" clip-rule="evenodd" d="M18.254 21.9239C21.3324 21.9239 23.828 19.4283 23.828 16.3499C23.828 13.2714 21.3324 10.7759 18.254 10.7759C15.1756 10.7759 12.68 13.2714 12.68 16.3499C12.68 19.4283 15.1756 21.9239 18.254 21.9239Z" stroke="#D49552" stroke-width="2" stroke-linecap="round" stroke-linejoin="round"/>
<path d="M22.428 12.6538C22.5496 9.61304 23.2007 6.6168 24.352 3.7998" stroke="#D49552" stroke-width="2" stroke-linecap="round" stroke-linejoin="round"/>
<path d="M15.926 3.58008C14.6418 6.52189 13.9467 9.68689 13.88 12.8961" stroke="#D49552" stroke-width="2" stroke-linecap="round" stroke-linejoin="round"/>
</svg>
