<svg width="40" height="36" viewBox="0 0 40 36" fill="none" xmlns="http://www.w3.org/2000/svg">
<path fill-rule="evenodd" clip-rule="evenodd" d="M18.016 23.7359L2.038 14.5999C1.41533 14.2436 1.03113 13.5812 1.03113 12.8639C1.03113 12.1465 1.41533 11.4841 2.038 11.1279L18.016 1.99985C19.2454 1.29757 20.7546 1.29757 21.984 1.99985L37.962 11.1299C38.5847 11.4861 38.9689 12.1485 38.9689 12.8659C38.9689 13.5832 38.5847 14.2456 37.962 14.6019L21.984 23.7319C20.7553 24.4354 19.2462 24.4369 18.016 23.7359Z" stroke="#D49552" stroke-width="2" stroke-linecap="round" stroke-linejoin="round"/>
<path d="M30.974 19.4912V26.8701C30.974 36.2181 9.026 36.2181 9.026 26.8701L9.026 19.4912" stroke="#D49552" stroke-width="2" stroke-linecap="round" stroke-linejoin="round"/>
<path d="M37 15.1558V26.3698" stroke="#D49552" stroke-width="2" stroke-linecap="round" stroke-linejoin="round"/>
<path fill-rule="evenodd" clip-rule="evenodd" d="M37 34.3701C38.1046 34.3701 39 32.5793 39 30.3701C39 28.161 38.1046 26.3701 37 26.3701C35.8954 26.3701 35 28.161 35 30.3701C35 32.5793 35.8954 34.3701 37 34.3701Z" stroke="#D49552" stroke-width="2" stroke-linecap="round" stroke-linejoin="round"/>
<path d="M17.138 12.4781C17.138 11.8061 18.42 11.2621 20 11.2621C21.58 11.2621 22.862 11.8061 22.862 12.4781" stroke="#D49552" stroke-width="2" stroke-linecap="round" stroke-linejoin="round"/>
</svg>
