<svg width="207" height="15" viewBox="0 0 207 15" fill="none" xmlns="http://www.w3.org/2000/svg">
<g clip-path="url(#clip0)">
<path fill-rule="evenodd" clip-rule="evenodd" d="M25.2647 6.9395C25.2647 3.10692 22.1443 0 18.295 0C14.4458 0 11.3254 3.10692 11.3254 6.9395C11.3254 10.7721 14.4458 13.879 18.295 13.879C22.1443 13.879 25.2647 10.7721 25.2647 6.9395ZM36.5901 6.9585L29.6012 0H25.2377L32.2178 6.95016L25.2588 13.879H29.6393L36.5901 6.9585ZM4.37232 6.95016L11.3523 0H6.98888L0 6.9585L6.95078 13.879H11.3313L4.37232 6.95016ZM22.1671 6.9395C22.1671 4.81029 20.4335 3.08422 18.295 3.08422C16.1566 3.08422 14.423 4.81029 14.423 6.9395C14.423 9.06871 16.1566 10.7948 18.295 10.7948C20.4335 10.7948 22.1671 9.06871 22.1671 6.9395Z" fill="white"/>
<path fill-rule="evenodd" clip-rule="evenodd" d="M66.7889 4.46902C66.472 5.43243 67.4359 5.96032 68.2677 6.0923L68.3533 6.10702C69.518 6.31628 70.5117 6.85491 71.0273 7.82115C71.4498 8.66578 71.4498 9.62919 70.9745 10.5662C70.3935 11.5692 69.3504 12.1499 68.0301 12.1499C67.7132 12.1499 67.3435 12.1499 67.0266 12.0443C65.3893 11.7276 64.5442 10.3682 64.2802 9.62919L66.0363 8.99571C66.0363 8.99571 66.3796 10.2099 67.8188 10.2627H67.9244C68.3998 10.2627 68.8223 10.1043 69.0335 9.78756C69.2448 9.45762 69.2448 8.98252 69.1392 8.77136L69.1217 8.73314C68.9478 8.37666 68.4835 8.02867 67.8716 7.92673C66.6437 7.76836 65.7062 7.29325 65.1252 6.46182L65.0772 6.39555C64.6393 5.77021 64.4969 4.95778 64.6499 4.23147C64.8083 3.50561 65.2308 2.92493 65.8118 2.50261C66.4324 2.0803 67.185 1.86914 68.0829 1.86914C69.192 1.86914 70.0766 2.29146 70.8161 3.13609C71.2914 3.75636 71.5027 4.33705 71.5027 4.45582L69.7201 5.03651C69.7201 5.03651 69.4032 3.96752 68.0829 3.76956C67.6471 3.70357 66.9737 3.92793 66.7889 4.46902ZM53.3293 11.9915L58.1487 2.0803L62.9681 11.9915H61.0007L60.3802 10.6982H55.9305L55.2967 11.9915H53.3293ZM51.3835 2.0935V11.9915H49.2973V8.01911L46.6037 11.3448L43.9101 8.01911V11.9915H41.8239V2.0935L46.6037 8.01911L51.3835 2.0935ZM56.7359 9.0485L58.1487 6.11869L59.5747 9.0485H56.7359ZM79.8681 3.91473V2.0935H73.4774V3.91473H75.6296V11.9915H77.7291V3.91473H79.8681ZM84.1958 10.1571H89.3849V11.9915H82.1096V2.0935H89.3849V3.91473H84.1958V6.13189H88.0249V7.91353H84.1958V10.1571ZM100.406 11.9915L97.9892 8.34904C98.9795 7.67598 99.6397 6.80495 99.6397 5.51161C99.6397 3.59799 98.2005 2.0935 96.3255 2.0935H91.8678V11.9915H93.9673V8.98252L94.7806 8.9858C95.1994 8.98552 95.4838 8.98197 95.8634 8.96932L97.7912 11.9915H100.406ZM93.9673 3.94113V7.14808C93.9673 7.14808 95.6267 7.1971 96.2594 7.14162L96.3255 7.13489C97.065 7.0425 97.5799 6.38264 97.5799 5.49841C97.5799 4.61419 97.065 4.0731 96.3255 3.96752C95.903 3.90993 94.9497 3.92215 94.343 3.93309L93.9673 3.94113ZM105.651 6.07664C104.841 5.92206 103.956 5.39802 104.262 4.46902C104.447 3.92793 105.12 3.70357 105.556 3.76956C106.876 3.96752 107.193 5.03651 107.193 5.03651L108.975 4.45582C108.975 4.33705 108.764 3.75636 108.289 3.13609C107.549 2.29146 106.665 1.86914 105.556 1.86914C104.658 1.86914 103.905 2.0803 103.285 2.50261C102.704 2.92493 102.281 3.50561 102.123 4.23147C101.97 4.95778 102.112 5.77021 102.55 6.39555L102.598 6.46182C103.179 7.29325 104.116 7.76836 105.344 7.92673C105.956 8.02867 106.421 8.37666 106.594 8.73314L106.612 8.77136C106.718 8.98252 106.718 9.45762 106.506 9.78756C106.295 10.1043 105.873 10.2627 105.397 10.2627H105.292C103.852 10.2099 103.509 8.99571 103.509 8.99571L101.753 9.62919L101.784 9.71219C102.08 10.4657 102.922 11.7391 104.499 12.0443C104.816 12.1499 105.186 12.1499 105.503 12.1499C106.823 12.1499 107.866 11.5692 108.447 10.5662C108.923 9.62919 108.923 8.66578 108.5 7.82115C107.985 6.85491 106.991 6.31628 105.826 6.10702L105.651 6.07664ZM125.503 7.0689C125.503 9.85354 123.271 12.1235 120.525 12.1235C117.778 12.1235 115.547 9.85354 115.547 7.0689C115.547 4.28426 117.778 2.01431 120.525 2.01431C123.271 2.01431 125.503 4.28426 125.503 7.0689ZM120.525 4.09949C122.096 4.09949 123.377 5.43243 123.377 7.0689C123.377 8.70537 122.096 10.0383 120.525 10.0383C118.954 10.0383 117.673 8.70537 117.673 7.0689C117.673 5.43243 118.954 4.09949 120.525 4.09949ZM130.072 6.02631H133.901V7.80795H130.072V11.9915H127.986V2.0935H135.261V3.91473H130.072V6.02631ZM151.049 2.0935H149.068L146.229 7.96632L143.377 2.0935H141.423L146.229 11.9915L151.049 2.0935ZM155.741 2.0935V11.9915H153.655V2.0935H155.741ZM162.839 6.0923C162.007 5.96032 161.043 5.43243 161.36 4.46902C161.545 3.92793 162.218 3.70357 162.654 3.76956C163.974 3.96752 164.291 5.03651 164.291 5.03651L166.074 4.45582C166.074 4.33705 165.862 3.75636 165.387 3.13609C164.648 2.29146 163.763 1.86914 162.654 1.86914C161.756 1.86914 161.003 2.0803 160.383 2.50261C159.802 2.92493 159.379 3.50561 159.221 4.23147C159.068 4.95778 159.21 5.77021 159.648 6.39555L159.696 6.46182C160.277 7.29325 161.215 7.76836 162.443 7.92673C163.055 8.02867 163.519 8.37666 163.693 8.73314L163.71 8.77136C163.816 8.98252 163.816 9.45762 163.605 9.78756C163.393 10.1043 162.971 10.2627 162.496 10.2627H162.39C160.951 10.2099 160.607 8.99571 160.607 8.99571L158.851 9.62919C159.115 10.3682 159.96 11.7276 161.598 12.0443C161.915 12.1499 162.284 12.1499 162.601 12.1499C163.922 12.1499 164.965 11.5692 165.546 10.5662C166.021 9.62919 166.021 8.66578 165.598 7.82115C165.083 6.85491 164.089 6.31628 162.924 6.10702L162.839 6.0923ZM176.787 2.0935V8.11149C176.787 10.3154 175.519 12.1103 172.812 12.1103C170.106 12.1103 168.838 10.3154 168.838 8.11149V2.0935H170.911V8.11149H170.924C170.924 9.15408 171.611 10.2231 172.812 10.2231C174.001 10.2231 174.701 9.15408 174.701 8.11149V2.0935H176.787ZM183.345 2.0803L178.525 11.9915H180.493L181.127 10.6982H185.576L186.197 11.9915H188.164L183.345 2.0803ZM183.345 6.11869L181.932 9.0485H184.771L183.345 6.11869ZM196.514 10.1175H192.883V2.0935H190.783V11.9915H196.514V10.1175ZM205.84 7.82115C205.312 6.83135 204.282 6.29026 203.081 6.0923L202.991 6.07664C202.182 5.92206 201.296 5.39802 201.602 4.46902C201.787 3.92793 202.46 3.70357 202.896 3.76956C204.048 3.94233 204.436 4.77851 204.516 4.98856L204.533 5.03651L206.316 4.45582C206.316 4.33705 206.105 3.75636 205.629 3.13609C204.89 2.29146 204.005 1.86914 202.896 1.86914C201.998 1.86914 201.246 2.0803 200.625 2.50261C200.044 2.92493 199.621 3.50561 199.463 4.23147C199.305 4.98372 199.463 5.82835 199.938 6.46182L199.988 6.53028C200.572 7.3194 201.491 7.77276 202.685 7.92673C203.319 8.03231 203.794 8.40183 203.952 8.77136L203.965 8.80036C204.058 9.02356 204.049 9.47197 203.847 9.78756C203.635 10.1043 203.213 10.2627 202.738 10.2627H202.632C201.369 10.2164 200.95 9.27641 200.866 9.04625L200.849 8.99571L199.093 9.62919C199.357 10.3682 200.202 11.7276 201.84 12.0443C202.104 12.1323 202.405 12.1469 202.681 12.1494L202.843 12.1499C204.164 12.1499 205.207 11.5692 205.788 10.5662C206.263 9.62919 206.263 8.66578 205.84 7.82115Z" fill="white"/>
</g>
<defs>
<clipPath id="clip0">
<rect width="207" height="15" fill="white"/>
</clipPath>
</defs>
</svg>
