<svg width="22" height="22" viewBox="0 0 22 22" fill="none" xmlns="http://www.w3.org/2000/svg">
<path fill-rule="evenodd" clip-rule="evenodd" d="M6.46406 0.0652258C7.63734 0.0116917 8.01203 -0.000976562 10.9996 -0.000976562C13.9871 -0.000976562 14.3617 0.0116917 15.535 0.0652258C16.7059 0.118636 17.5055 0.304602 18.2052 0.576564C18.9285 0.857646 19.542 1.23379 20.1537 1.84537C20.7652 2.45691 21.1413 3.07038 21.4224 3.79375C21.6944 4.49347 21.8803 5.29318 21.9337 6.46399C21.9872 7.63729 22 8.01197 22 10.9995C22 13.987 21.9872 14.3616 21.9337 15.5349C21.8803 16.7058 21.6944 17.5055 21.4224 18.2052C21.1413 18.9285 20.7652 19.542 20.1537 20.1536C19.542 20.7652 18.9285 21.1413 18.2052 21.4225C17.5055 21.6944 16.7059 21.8803 15.535 21.9337C14.3617 21.9872 13.9871 21.9999 10.9996 21.9999C8.01203 21.9999 7.63734 21.9872 6.46406 21.9337C5.29324 21.8803 4.49354 21.6944 3.79383 21.4225C3.07046 21.1413 2.457 20.7652 1.84546 20.1536C1.23389 19.542 0.85775 18.9285 0.57667 18.2052C0.304723 17.5055 0.118744 16.7058 0.0653475 15.5349C0.0118137 14.3616 -0.000854492 13.987 -0.000854492 10.9995C-0.000854492 8.01197 0.0118137 7.63729 0.0653475 6.46399C0.118744 5.29318 0.304723 4.49347 0.57667 3.79375C0.85775 3.07038 1.23389 2.45691 1.84546 1.84537C2.457 1.23379 3.07046 0.857646 3.79383 0.576564C4.49354 0.304602 5.29324 0.118636 6.46406 0.0652258ZM15.4439 2.04509C14.284 1.99227 13.936 1.98099 10.9987 1.98099C8.06154 1.98099 7.71368 1.99227 6.55374 2.04509C5.48113 2.09406 4.89862 2.27329 4.51101 2.4239C3.99754 2.62349 3.63111 2.86186 3.24625 3.24686C2.86125 3.63172 2.62288 3.99815 2.4233 4.51162C2.27268 4.89924 2.09346 5.48176 2.04463 6.55422C1.99167 7.71418 1.98039 8.06218 1.98039 10.9994C1.98039 13.9366 1.99167 14.2846 2.04463 15.4446C2.09346 16.517 2.27268 17.0996 2.4233 17.4872C2.62288 18.0006 2.86125 18.3671 3.24625 18.7519C3.63111 19.1369 3.99754 19.3753 4.51101 19.5749C4.89862 19.7255 5.48113 19.9047 6.55374 19.9537C7.71354 20.0065 8.0614 20.0178 10.9987 20.0178C13.9362 20.0178 14.2841 20.0065 15.4439 19.9537C16.5164 19.9047 17.0989 19.7255 17.4865 19.5749C18 19.3753 18.3664 19.1369 18.7514 18.7519C19.1362 18.3671 19.3746 18.0006 19.5742 17.4872C19.7248 17.0996 19.904 16.517 19.953 15.4446C20.006 14.2846 20.0171 13.9366 20.0171 10.9994C20.0171 8.06218 20.006 7.71418 19.953 6.55422C19.904 5.48176 19.7248 4.89924 19.5742 4.51162C19.3746 3.99815 19.1362 3.63172 18.7514 3.24686C18.3664 2.86186 18 2.62349 17.4865 2.4239C17.0989 2.27329 16.5164 2.09406 15.4439 2.04509ZM18.1917 5.12688C18.1917 5.8563 17.6007 6.44735 16.8717 6.44735C16.1426 6.44735 15.5516 5.8563 15.5516 5.12688C15.5516 4.39814 16.1426 3.8071 16.8717 3.8071C17.6007 3.8071 18.1917 4.39814 18.1917 5.12688ZM10.9986 14.666C8.97376 14.666 7.33199 13.0245 7.33199 10.9995C7.33199 8.97399 8.97376 7.33248 10.9986 7.33248C13.0239 7.33248 14.6654 8.97399 14.6654 10.9995C14.6654 13.0245 13.0239 14.666 10.9986 14.666ZM10.9997 5.35053C7.87957 5.35053 5.3506 7.87992 5.3506 10.9995C5.3506 14.1193 7.87957 16.648 10.9997 16.648C14.1193 16.648 16.6483 14.1193 16.6483 10.9995C16.6483 7.87992 14.1193 5.35053 10.9997 5.35053Z" fill="#D49552"/>
</svg>
