<svg width="37" height="14" viewBox="0 0 37 14" fill="none" xmlns="http://www.w3.org/2000/svg">
<path fill-rule="evenodd" clip-rule="evenodd" d="M25.2647 6.9395C25.2647 3.10692 22.1443 0 18.295 0C14.4458 0 11.3254 3.10692 11.3254 6.9395C11.3254 10.7721 14.4458 13.879 18.295 13.879C22.1443 13.879 25.2647 10.7721 25.2647 6.9395ZM36.5901 6.9585L29.6012 0H25.2377L32.2178 6.95016L25.2588 13.879H29.6393L36.5901 6.9585ZM4.37232 6.95016L11.3523 0H6.98888L0 6.9585L6.95078 13.879H11.3313L4.37232 6.95016ZM22.1671 6.9395C22.1671 4.81029 20.4335 3.08422 18.295 3.08422C16.1566 3.08422 14.423 4.81029 14.423 6.9395C14.423 9.06871 16.1566 10.7948 18.295 10.7948C20.4335 10.7948 22.1671 9.06871 22.1671 6.9395Z" fill="white"/>
</svg>
