<svg width="44" height="49" viewBox="0 0 44 49" fill="none" xmlns="http://www.w3.org/2000/svg">
<path d="M26.75 27.1475C25.3569 26.8949 23.9456 26.7553 22.53 26.73C18.3175 26.73 16.825 28.19 16.825 29.44C16.825 31.36 19.7325 31.8275 22.3 32.24C26.155 32.8625 27.8725 33.4275 27.8725 35.1275C27.8725 36.475 26.3375 37.4475 23.765 37.735C21.3642 37.929 18.948 37.7074 16.6225 37.08" stroke="white" stroke-width="1.875" stroke-linecap="round"/>
<path d="M22.2775 26.625V24.75" stroke="white" stroke-width="1.875" stroke-linecap="round"/>
<path d="M22.2775 39.75V37.875" stroke="white" stroke-width="1.875" stroke-linecap="round"/>
<path d="M29.0275 9.09251C31.4675 6.65251 32.655 3.88251 31.68 2.90501C30.705 1.92751 27.93 3.11501 25.4925 5.55751C25.2175 5.83251 24.9625 6.11251 24.7225 6.39251C24.54 3.39251 23.5125 1.07501 22.26 1.07501C21.0075 1.07501 19.9775 3.38501 19.7975 6.39251C19.5475 6.11251 19.2975 5.83251 19.0275 5.55751C16.5875 3.11501 13.8175 1.93001 12.84 2.90501C10.66 5.08501 15.895 10.625 18.3025 12.25C18.3025 12.25 -8.99999 29.75 6.66751 44.5175C9.36153 46.5524 12.7101 47.525 16.075 47.25H28.5C31.8646 47.5292 35.2138 46.5561 37.905 44.5175C48.37 34.61 39.3475 23.4725 32.275 17.215C31.2333 16.2933 30.1667 15.4175 29.075 14.5875" stroke="white" stroke-width="1.875" stroke-linecap="round" stroke-linejoin="round"/>
<path d="M24.9 12.185C24.9 12.185 36 12.25 41 17.25" stroke="white" stroke-width="1.875" stroke-linecap="round" stroke-linejoin="round"/>
<path d="M27.1375 19.04C28.34 17.9875 30.5125 14.3325 24.9 12.185" stroke="white" stroke-width="1.875" stroke-linecap="round" stroke-linejoin="round"/>
</svg>
