<svg width="44" height="48" viewBox="0 0 44 48" fill="none" xmlns="http://www.w3.org/2000/svg">
<path d="M1.00003 48C0.86403 48 0.72403 47.972 0.59003 47.912C0.0860305 47.686 -0.13797 47.094 0.0880305 46.59C4.05003 37.756 9.76203 30.994 18.286 22.3C18.676 21.906 19.308 21.902 19.7 22.284C20.094 22.67 20.102 23.306 19.716 23.698C11.348 32.232 5.75403 38.846 1.91403 47.408C1.74603 47.78 1.38003 48 1.00003 48Z" fill="white"/>
<path fill-rule="evenodd" clip-rule="evenodd" d="M4 39C4 39.552 4.448 40 5 40C19.364 40 32.526 32.134 39.352 19.474C39.518 19.164 39.51 18.788 39.33 18.488C39.148 18.186 38.822 18 38.47 18H34.766L41.408 14.204C41.62 14.084 41.78 13.89 41.858 13.66C43.28 9.522 44 5.262 44 1C44 0.448 43.552 0 43 0C21.496 0 4 17.496 4 39ZM6.014 37.986C6.542 18.388 22.386 2.544 41.986 2.014C41.884 5.594 41.246 9.168 40.086 12.656L30.504 18.13C30.11 18.358 29.918 18.818 30.034 19.256C30.15 19.696 30.546 20 31 20H36.75C30.246 30.858 18.68 37.642 6.014 37.986Z" fill="white"/>
</svg>
