<svg width="48" height="40" viewBox="0 0 48 40" fill="none" xmlns="http://www.w3.org/2000/svg">
<mask id="path-1-inside-1" fill="white">
<path fill-rule="evenodd" clip-rule="evenodd" d="M36.8008 0.376612C37.1577 0.127328 37.5968 -0.00524733 38.0469 0.00032796C38.7912 0.0101074 39.4679 0.394687 39.8035 0.998536C40.139 1.60239 40.0777 2.3256 39.6445 2.8757C36.2168 8.03163 35.8683 14.9535 35.918 18.1897H44C46.21 18.1897 48 19.8164 48 21.8248V36.365C48 38.3733 46.21 40 44 40H32C29.79 40 28 38.3733 28 36.365V18.1897C28 6.47683 36.8008 0.376612 36.8008 0.376612ZM8.80078 0.376612C9.15772 0.127328 9.59675 -0.00524729 10.0469 0.00032796C10.7912 0.0101073 11.4679 0.394687 11.8035 0.998536C12.139 1.60238 12.0777 2.3256 11.6445 2.8757C8.21682 8.03163 7.86826 14.9535 7.91797 18.1897H16C18.21 18.1897 20 19.8164 20 21.8248V36.365C20 38.3733 18.21 40 16 40H4C1.79 40 0 38.3733 0 36.365V18.1897C0 6.47683 8.80078 0.376612 8.80078 0.376612Z"/>
</mask>
<path d="M38.0469 0.00032796L38.0732 -1.9995L38.0716 -1.99952L38.0469 0.00032796ZM36.8008 0.376612L37.9401 2.02036L37.9459 2.01631L36.8008 0.376612ZM39.8035 0.998536L38.0552 1.96992L38.0552 1.96993L39.8035 0.998536ZM39.6445 2.8757L38.0733 1.63832L38.0235 1.70149L37.979 1.76845L39.6445 2.8757ZM35.918 18.1897L33.9182 18.2205L33.9485 20.1897H35.918V18.1897ZM10.0469 0.00032796L10.0732 -1.9995L10.0716 -1.99952L10.0469 0.00032796ZM8.80078 0.376612L9.94014 2.02036L9.94594 2.01631L8.80078 0.376612ZM11.8035 0.998536L13.5517 0.0271457V0.0271457L11.8035 0.998536ZM11.6445 2.8757L10.0733 1.63832L10.0235 1.70149L9.979 1.76845L11.6445 2.8757ZM7.91797 18.1897L5.9182 18.2205L5.94845 20.1897H7.91797V18.1897ZM38.0716 -1.99952C37.2187 -2.01008 36.3675 -1.76028 35.6556 -1.26309L37.9459 2.01631C37.9456 2.01656 37.9522 2.012 37.967 2.00751C37.9819 2.00303 38.0008 1.99991 38.0221 2.00017L38.0716 -1.99952ZM41.5517 0.0271479C40.8362 -1.26054 39.4664 -1.98119 38.0732 -1.9995L38.0206 2.00016C38.0385 2.00039 38.0539 2.00286 38.0662 2.0062C38.0787 2.00959 38.0867 2.01347 38.0903 2.0155C38.0987 2.02026 38.0781 2.01122 38.0552 1.96992L41.5517 0.0271479ZM41.2158 4.11309C42.1388 2.94104 42.2857 1.3482 41.5517 0.0271395L38.0552 1.96993C38.0305 1.92546 38.0133 1.86044 38.0194 1.78856C38.0254 1.7172 38.052 1.66533 38.0733 1.63832L41.2158 4.11309ZM37.9177 18.159C37.869 14.9872 38.2403 8.60051 41.3101 3.98296L37.979 1.76845C34.1934 7.46275 33.8675 14.9198 33.9182 18.2205L37.9177 18.159ZM44 16.1897H35.918V20.1897H44V16.1897ZM50 21.8248C50 18.5361 47.1302 16.1897 44 16.1897V20.1897C45.2898 20.1897 46 21.0968 46 21.8248H50ZM50 36.365V21.8248H46V36.365H50ZM44 42C47.1302 42 50 39.6537 50 36.365H46C46 37.093 45.2898 38 44 38V42ZM32 42H44V38H32V42ZM26 36.365C26 39.6537 28.8698 42 32 42V38C30.7102 38 30 37.093 30 36.365H26ZM26 18.1897V36.365H30V18.1897H26ZM36.8008 0.376612C35.6614 -1.26713 35.6607 -1.2666 35.6599 -1.26606C35.6596 -1.26584 35.6588 -1.26527 35.6581 -1.26484C35.6569 -1.26398 35.6555 -1.26303 35.654 -1.26198C35.651 -1.25988 35.6475 -1.2574 35.6434 -1.25453C35.6353 -1.2488 35.625 -1.24154 35.6127 -1.23275C35.5881 -1.21517 35.5553 -1.19145 35.5149 -1.16162C35.434 -1.10197 35.3224 -1.01777 35.1846 -0.909124C34.909 -0.69195 34.5275 -0.376281 34.0756 0.0372228C33.1732 0.862823 31.9808 2.087 30.7897 3.70526C28.4048 6.94532 26 11.8044 26 18.1897H30C30 12.8621 31.9956 8.81468 34.0111 6.07641C35.0202 4.7055 36.0279 3.67256 36.7757 2.98835C37.1489 2.64694 37.4549 2.39452 37.6607 2.23234C37.7635 2.15131 37.841 2.09301 37.889 2.05758C37.913 2.03987 37.9297 2.0279 37.9384 2.02169C37.9427 2.01858 37.9451 2.01691 37.9454 2.01669C37.9456 2.01658 37.9452 2.01683 37.9443 2.01744C37.9439 2.01774 37.9433 2.01814 37.9426 2.01862C37.9423 2.01887 37.9417 2.0193 37.9415 2.01942C37.9408 2.01987 37.9401 2.02035 36.8008 0.376612ZM10.0716 -1.99952C9.21865 -2.01008 8.36753 -1.76028 7.65562 -1.26308L9.94594 2.01631C9.94559 2.01655 9.95217 2.012 9.96704 2.00751C9.98187 2.00303 10.0008 1.99991 10.0221 2.00017L10.0716 -1.99952ZM13.5517 0.0271457C12.8362 -1.26053 11.4664 -1.98119 10.0732 -1.9995L10.0206 2.00016C10.0385 2.00039 10.0539 2.00286 10.0662 2.0062C10.0787 2.00959 10.0867 2.01347 10.0903 2.0155C10.0987 2.02026 10.0781 2.01122 10.0552 1.96993L13.5517 0.0271457ZM13.2158 4.11309C14.1388 2.94104 14.2857 1.34819 13.5517 0.0271457L10.0552 1.96993C10.0305 1.92546 10.0133 1.86044 10.0194 1.78856C10.0254 1.7172 10.052 1.66533 10.0733 1.63832L13.2158 4.11309ZM9.91773 18.159C9.86902 14.9872 10.2403 8.60051 13.3101 3.98296L9.979 1.76845C6.19337 7.46275 5.86751 14.9198 5.9182 18.2205L9.91773 18.159ZM16 16.1897H7.91797V20.1897H16V16.1897ZM22 21.8248C22 18.5361 19.1302 16.1897 16 16.1897V20.1897C17.2898 20.1897 18 21.0968 18 21.8248H22ZM22 36.365V21.8248H18V36.365H22ZM16 42C19.1302 42 22 39.6537 22 36.365H18C18 37.093 17.2898 38 16 38V42ZM4 42H16V38H4V42ZM-2 36.365C-2 39.6537 0.869794 42 4 42V38C2.71021 38 2 37.093 2 36.365H-2ZM-2 18.1897V36.365H2V18.1897H-2ZM8.80078 0.376612C7.66143 -1.26713 7.66068 -1.2666 7.65989 -1.26606C7.65958 -1.26584 7.65875 -1.26527 7.65814 -1.26484C7.6569 -1.26398 7.65554 -1.26303 7.65403 -1.26198C7.65103 -1.25988 7.64748 -1.2574 7.64341 -1.25453C7.63527 -1.2488 7.62501 -1.24154 7.61271 -1.23275C7.5881 -1.21517 7.5553 -1.19145 7.51485 -1.16162C7.43397 -1.10197 7.3224 -1.01777 7.18456 -0.909124C6.90903 -0.69195 6.52751 -0.376281 6.07558 0.0372228C5.17324 0.862823 3.9808 2.087 2.78967 3.70526C0.404802 6.94532 -2 11.8044 -2 18.1897H2C2 12.8621 3.99559 8.81468 6.01111 6.07641C7.02018 4.7055 8.02793 3.67256 8.77574 2.98835C9.14888 2.64694 9.45492 2.39452 9.66069 2.23234C9.76349 2.15131 9.841 2.09301 9.88904 2.05758C9.91305 2.03987 9.92966 2.0279 9.93836 2.02169C9.94271 2.01858 9.94508 2.01691 9.94539 2.01669C9.94555 2.01658 9.9452 2.01683 9.94432 2.01744C9.94389 2.01774 9.94332 2.01814 9.94262 2.01862C9.94227 2.01887 9.94165 2.0193 9.94147 2.01942C9.94082 2.01987 9.94013 2.02035 8.80078 0.376612Z" fill="white" mask="url(#path-1-inside-1)"/>
</svg>
