<svg width="22" height="18" viewBox="0 0 22 18" fill="none" xmlns="http://www.w3.org/2000/svg">
<path d="M6.9186 18C15.2204 18 19.7612 11.0743 19.7612 5.06835C19.7612 4.87159 19.7612 4.67579 19.748 4.48082C20.6315 3.83746 21.394 3.04079 22 2.12821C21.1762 2.49588 20.3023 2.73678 19.4076 2.84334C20.3496 2.27547 21.0551 1.38173 21.392 0.329448C20.5059 0.858819 19.5366 1.23199 18.5258 1.43274C17.6723 0.518921 16.4803 0 15.2346 0C12.7562 0 10.7168 2.05369 10.7168 4.54929C10.7168 4.89538 10.7559 5.24064 10.8336 5.57779C7.20625 5.39478 3.82196 3.6671 1.53121 0.829257C0.339955 2.89422 0.956326 5.57022 2.92862 6.89626C2.21032 6.87481 1.5077 6.6797 0.880013 6.32743V6.38504C0.880563 8.54034 2.4031 10.4135 4.50121 10.8403C3.83667 11.0227 3.13941 11.0494 2.46319 10.9182C3.05292 12.7651 4.7538 14.0381 6.68003 14.0745C5.08215 15.3391 3.10696 16.0261 1.07444 16.024C0.715426 16.0233 0.356579 16.0013 0 15.9584C2.06389 17.292 4.46615 17.9997 6.9186 17.9964" fill="#D49552"/>
</svg>
