<svg width="23" height="17" viewBox="0 0 23 17" fill="none" xmlns="http://www.w3.org/2000/svg">
<path fill-rule="evenodd" clip-rule="evenodd" d="M20.4858 0.50751C21.4754 0.786771 22.255 1.60998 22.5193 2.65456C23 4.54861 23 8.49966 23 8.49966C23 8.49966 23 12.4514 22.5193 14.3454C22.255 15.39 21.4754 16.2132 20.4858 16.4925C18.6924 17 11.5 17 11.5 17C11.5 17 4.30756 17 2.51417 16.4925C1.52456 16.2132 0.745057 15.39 0.48062 14.3454C0 12.4514 0 8.49966 0 8.49966C0 8.49966 0 4.54861 0.48062 2.65456C0.745057 1.60998 1.52456 0.786771 2.51417 0.50751C4.30756 0 11.5 0 11.5 0C11.5 0 18.6924 0 20.4858 0.50751ZM15.1578 8.50034L9.14644 12.0876V4.91244L15.1578 8.50034Z" fill="#D49552"/>
</svg>
